0
SECTION
2
HEADER
9
$INSUNITS
70
4
9
$ACADVER
1
AC1014
9
$HANDSEED
5
FFFF
0
ENDSEC
0
SECTION
2
TABLES
0
TABLE
2
VPORT
5
8
100
AcDbSymbolTable
0
ENDTAB
0
TABLE
2
LTYPE
5
5
100
AcDbSymbolTable
0
LTYPE
5
14
100
AcDbSymbolTableRecord
100
AcDbLinetypeTableRecord
2
BYBLOCK
70
0
0
LTYPE
5
15
100
AcDbSymbolTableRecord
100
AcDbLinetypeTableRecord
2
BYLAYER
70
0
0
ENDTAB
0
TABLE
2
LAYER
5
2
100
AcDbSymbolTable
70
2
0
LAYER
5
50
100
AcDbSymbolTableRecord
100
AcDbLayerTableRecord
2
0
70
0
6
CONTINUOUS
0
ENDTAB
0
TABLE
2
STYLE
5
3
100
AcDbSymbolTable
70
1
0
STYLE
5
11
100
AcDbSymbolTableRecord
100
AcDbTextStyleTableRecord
2
STANDARD
70
0
0
ENDTAB
0
TABLE
2
VIEW
5
6
100
AcDbSymbolTable
70
0
0
ENDTAB
0
TABLE
2
UCS
5
7
100
AcDbSymbolTable
70
0
0
ENDTAB
0
TABLE
2
APPID
5
9
100
AcDbSymbolTable
70
2
0
APPID
5
12
100
AcDbSymbolTableRecord
100
AcDbRegAppTableRecord
2
ACAD
70
0
0
ENDTAB
0
TABLE
2
DIMSTYLE
5
A
100
AcDbSymbolTable
70
1
0
ENDTAB
0
TABLE
2
BLOCK_RECORD
5
1
100
AcDbSymbolTable
70
1
0
BLOCK_RECORD
5
1F
100
AcDbSymbolTableRecord
100
AcDbBlockTableRecord
2
*MODEL_SPACE
0
BLOCK_RECORD
5
1B
100
AcDbSymbolTableRecord
100
AcDbBlockTableRecord
2
*PAPER_SPACE
0
ENDTAB
0
ENDSEC
0
SECTION
2
BLOCKS
0
BLOCK
5
20
100
AcDbEntity
100
AcDbBlockBegin
2
*MODEL_SPACE
0
ENDBLK
5
21
100
AcDbEntity
100
AcDbBlockEnd
0
BLOCK
5
1C
100
AcDbEntity
100
AcDbBlockBegin
2
*PAPER_SPACE
0
ENDBLK
5
1D
100
AcDbEntity
100
AcDbBlockEnd
0
ENDSEC
0
SECTION
2
ENTITIES
0
LWPOLYLINE
5
100
100
AcDbEntity
8
0
100
AcDbPolyline
90
24
70
1
43
0.0
10
-17
20
-31
42
0.41421356237309503
10
-18
20
-32
10
-18
20
-38
42
0.41421356237309503
10
-17
20
-39
10
17.585786437626901
20
-39.000000000000007
42
0.1989123673796602
10
18.292893218813447
20
-38.707106781186553
10
22.707106781186539
20
-34.292893218813461
42
0.19891236737965684
10
22.999999999999993
20
-33.585786437626915
10
23
20
-20.000000000000028
42
-0.41421356237309476
10
27.999999999999993
20
-15.000000000000027
10
52.585786437626908
20
-15
42
0.19891236737965681
10
53.292893218813461
20
-14.707106781186551
10
57.707106781186553
20
-10.29289321881345
42
0.19891236737967416
10
58.000000000000007
20
-9.5857864376269006
10
58.000000000000007
20
9.5857864376269024
42
0.19891236737967402
10
57.707106781186553
20
10.29289321881345
10
53.292893218813468
20
14.707106781186541
42
0.1989123673796519
10
52.585786437626929
20
15.000000000000004
10
0
20
15
42
0.60681489631459606
10
-12.287280664334874
20
-8.6036465452656952
10
-0.98727833189009817
20
-24.741722352527944
42
-0.15391472105982854
10
-0.80643037617909119
20
-25.315298788878987
10
-0.80643037617909086
20
-30
42
-0.41421356237309515
10
-1.8064303761790921
20
-31
0
CIRCLE
5
101
100
AcDbEntity
8
0
100
AcDbCircle
10
13
20
-35
30
0
40
1.6000000000000003
210
0
220
0
230
1
0
CIRCLE
5
102
100
AcDbEntity
8
0
100
AcDbCircle
10
-13
20
-35
30
0
40
1.6000000000000003
210
0
220
0
230
1
0
CIRCLE
5
103
100
AcDbEntity
8
0
100
AcDbCircle
10
33
20
10.250000000000004
30
0
40
1.05
210
0
220
0
230
1
0
CIRCLE
5
104
100
AcDbEntity
8
0
100
AcDbCircle
10
8
20
-10.25
30
0
40
1.05
210
0
220
0
230
1
0
CIRCLE
5
105
100
AcDbEntity
8
0
100
AcDbCircle
10
7.9999999999999991
20
10.25
30
0
40
1.05
210
0
220
0
230
1
0
CIRCLE
5
106
100
AcDbEntity
8
0
100
AcDbCircle
10
33
20
-10.25
30
0
40
1.05
210
0
220
0
230
1
0
LWPOLYLINE
5
107
100
AcDbEntity
8
0
100
AcDbPolyline
90
8
70
1
43
0.0
10
54
20
6.0000000000000009
10
54.000000000000014
20
-6.0000000000000009
42
-0.41421356237309503
10
52.000000000000014
20
-8.0000000000000018
10
40.000000000000007
20
-8.0000000000000036
42
-0.41421356237309503
10
38.000000000000007
20
-6.0000000000000009
10
38.000000000000007
20
6.0000000000000009
42
-0.41421356237309503
10
40.000000000000007
20
8.0000000000000018
10
52
20
8.0000000000000036
42
-0.41421356237309503
0
LWPOLYLINE
5
108
100
AcDbEntity
8
0
100
AcDbPolyline
90
12
70
1
43
0.0
10
7.9999999999999964
20
6.80073525436773
42
2.7202941017470863
10
8.0000000000000018
20
-6.8007352543677229
10
11.500000000000004
20
-6.8007352543677237
10
11.500000000000004
20
-10
10
17.500000089406971
20
-10
10
17.500000089406971
20
-9.300000000000006
10
29.70000008940697
20
-9.3000000000000007
10
29.70000008940697
20
9.3000000000000007
10
17.500000089406967
20
9.2999999999999989
10
17.500000089406971
20
10
10
11.500000000000004
20
10
10
11.500000000000004
20
6.8007352543677246
0
ENDSEC
0
SECTION
2
OBJECTS
0
DICTIONARY
5
C
100
AcDbDictionary
3
ACAD_GROUP
350
D
3
ACAD_MLINESTYLE
350
17
0
DICTIONARY
5
D
100
AcDbDictionary
0
DICTIONARY
5
1A
330
C
100
AcDbDictionary
0
DICTIONARY
5
17
100
AcDbDictionary
0
ENDSEC
0
EOF
