0
SECTION
2
HEADER
9
$INSUNITS
70
4
9
$ACADVER
1
AC1014
9
$HANDSEED
5
FFFF
0
ENDSEC
0
SECTION
2
TABLES
0
TABLE
2
VPORT
5
8
100
AcDbSymbolTable
0
ENDTAB
0
TABLE
2
LTYPE
5
5
100
AcDbSymbolTable
0
LTYPE
5
14
100
AcDbSymbolTableRecord
100
AcDbLinetypeTableRecord
2
BYBLOCK
70
0
0
LTYPE
5
15
100
AcDbSymbolTableRecord
100
AcDbLinetypeTableRecord
2
BYLAYER
70
0
0
ENDTAB
0
TABLE
2
LAYER
5
2
100
AcDbSymbolTable
70
2
0
LAYER
5
50
100
AcDbSymbolTableRecord
100
AcDbLayerTableRecord
2
0
70
0
6
CONTINUOUS
0
ENDTAB
0
TABLE
2
STYLE
5
3
100
AcDbSymbolTable
70
1
0
STYLE
5
11
100
AcDbSymbolTableRecord
100
AcDbTextStyleTableRecord
2
STANDARD
70
0
0
ENDTAB
0
TABLE
2
VIEW
5
6
100
AcDbSymbolTable
70
0
0
ENDTAB
0
TABLE
2
UCS
5
7
100
AcDbSymbolTable
70
0
0
ENDTAB
0
TABLE
2
APPID
5
9
100
AcDbSymbolTable
70
2
0
APPID
5
12
100
AcDbSymbolTableRecord
100
AcDbRegAppTableRecord
2
ACAD
70
0
0
ENDTAB
0
TABLE
2
DIMSTYLE
5
A
100
AcDbSymbolTable
70
1
0
ENDTAB
0
TABLE
2
BLOCK_RECORD
5
1
100
AcDbSymbolTable
70
1
0
BLOCK_RECORD
5
1F
100
AcDbSymbolTableRecord
100
AcDbBlockTableRecord
2
*MODEL_SPACE
0
BLOCK_RECORD
5
1B
100
AcDbSymbolTableRecord
100
AcDbBlockTableRecord
2
*PAPER_SPACE
0
ENDTAB
0
ENDSEC
0
SECTION
2
BLOCKS
0
BLOCK
5
20
100
AcDbEntity
100
AcDbBlockBegin
2
*MODEL_SPACE
0
ENDBLK
5
21
100
AcDbEntity
100
AcDbBlockEnd
0
BLOCK
5
1C
100
AcDbEntity
100
AcDbBlockBegin
2
*PAPER_SPACE
0
ENDBLK
5
1D
100
AcDbEntity
100
AcDbBlockEnd
0
ENDSEC
0
SECTION
2
ENTITIES
0
LWPOLYLINE
5
100
100
AcDbEntity
8
0
100
AcDbPolyline
90
36
70
1
43
0.0
10
-73.000000000000043
20
-3.5683973124887195e-15
10
-79.000000000000043
20
-6.0000000000000053
10
-79.000000000000057
20
-34.999999999999979
10
-73.000000000000057
20
-40.999999999999957
10
-60.000000000000036
20
-40.999999999999929
42
0.41421356237309631
10
-59.000000000000043
20
-39.999999999999929
10
-59.000000000000028
20
-31.999999999999936
42
0.41421356237310153
10
-60.000000000000036
20
-30.999999999999936
10
-69.000000000000114
20
-30.999999999999993
10
-68.999999999999986
20
-19.999999999999996
10
-7.9999999999999982
20
-19.999999999999996
42
0.4142135623730947
10
-6.9999999999999938
20
-18.999999999999993
10
-6.999999999999992
20
-9.9999999999999947
42
-0.4142135623730947
10
-5.9999999999999929
20
-8.9999999999999947
10
6.0000000000000089
20
-8.9999999999999964
42
-0.41421356237309537
10
7.0000000000000098
20
-9.9999999999999964
10
7.0000000000000098
20
-18.999999999999993
42
0.4142135623730937
10
8.0000000000000071
20
-19.999999999999996
10
69.000000000000014
20
-19.999999999999996
10
69
20
-30.999999999999996
10
60.000000000000036
20
-30.999999999999929
42
0.41421356237309764
10
59.000000000000028
20
-31.999999999999922
10
58.999999999999993
20
-39.999999999999972
42
0.41421356237309243
10
59.999999999999986
20
-40.999999999999979
10
73
20
-40.999999999999986
10
79.000000000000014
20
-34.999999999999986
10
79.000000000000028
20
-6.0000000000000098
10
73.000000000000014
20
-5.5511151231257827e-15
10
64.000000000000014
20
0
10
64
20
-9.9999999999998632
10
60
20
-9.999999999999865
10
60
20
2.2204460492503131e-15
10
-60
20
-2.7755575615628914e-15
10
-60
20
-9.9999999999999982
10
-64.000000000000028
20
-10.000000000000002
10
-64
20
-2.2204460492503131e-15
0
CIRCLE
5
101
100
AcDbEntity
8
0
100
AcDbCircle
10
-55
20
-10.000000000000027
30
0
40
1.5999999999999996
210
0
220
-0
230
1
0
CIRCLE
5
102
100
AcDbEntity
8
0
100
AcDbCircle
10
55
20
-10.000000000000027
30
0
40
1.5999999999999996
210
0
220
-0
230
1
0
LWPOLYLINE
5
103
100
AcDbEntity
8
0
100
AcDbPolyline
90
4
70
1
43
0.0
10
35
20
-4.9999999999999964
10
35
20
-8.9999999999999964
10
15
20
-8.9999999999999964
10
15
20
-4.9999999999999964
0
LWPOLYLINE
5
104
100
AcDbEntity
8
0
100
AcDbPolyline
90
4
70
1
43
0.0
10
-15
20
-4.9999999999999964
10
-15
20
-8.9999999999999964
10
-35
20
-8.9999999999999964
10
-35
20
-4.9999999999999964
0
ENDSEC
0
SECTION
2
OBJECTS
0
DICTIONARY
5
C
100
AcDbDictionary
3
ACAD_GROUP
350
D
3
ACAD_MLINESTYLE
350
17
0
DICTIONARY
5
D
100
AcDbDictionary
0
DICTIONARY
5
1A
330
C
100
AcDbDictionary
0
DICTIONARY
5
17
100
AcDbDictionary
0
ENDSEC
0
EOF
