0
SECTION
2
HEADER
9
$INSUNITS
70
4
9
$ACADVER
1
AC1014
9
$HANDSEED
5
FFFF
0
ENDSEC
0
SECTION
2
TABLES
0
TABLE
2
VPORT
5
8
100
AcDbSymbolTable
0
ENDTAB
0
TABLE
2
LTYPE
5
5
100
AcDbSymbolTable
0
LTYPE
5
14
100
AcDbSymbolTableRecord
100
AcDbLinetypeTableRecord
2
BYBLOCK
70
0
0
LTYPE
5
15
100
AcDbSymbolTableRecord
100
AcDbLinetypeTableRecord
2
BYLAYER
70
0
0
ENDTAB
0
TABLE
2
LAYER
5
2
100
AcDbSymbolTable
70
2
0
LAYER
5
50
100
AcDbSymbolTableRecord
100
AcDbLayerTableRecord
2
0
70
0
6
CONTINUOUS
0
ENDTAB
0
TABLE
2
STYLE
5
3
100
AcDbSymbolTable
70
1
0
STYLE
5
11
100
AcDbSymbolTableRecord
100
AcDbTextStyleTableRecord
2
STANDARD
70
0
0
ENDTAB
0
TABLE
2
VIEW
5
6
100
AcDbSymbolTable
70
0
0
ENDTAB
0
TABLE
2
UCS
5
7
100
AcDbSymbolTable
70
0
0
ENDTAB
0
TABLE
2
APPID
5
9
100
AcDbSymbolTable
70
2
0
APPID
5
12
100
AcDbSymbolTableRecord
100
AcDbRegAppTableRecord
2
ACAD
70
0
0
ENDTAB
0
TABLE
2
DIMSTYLE
5
A
100
AcDbSymbolTable
70
1
0
ENDTAB
0
TABLE
2
BLOCK_RECORD
5
1
100
AcDbSymbolTable
70
1
0
BLOCK_RECORD
5
1F
100
AcDbSymbolTableRecord
100
AcDbBlockTableRecord
2
*MODEL_SPACE
0
BLOCK_RECORD
5
1B
100
AcDbSymbolTableRecord
100
AcDbBlockTableRecord
2
*PAPER_SPACE
0
ENDTAB
0
ENDSEC
0
SECTION
2
BLOCKS
0
BLOCK
5
20
100
AcDbEntity
100
AcDbBlockBegin
2
*MODEL_SPACE
0
ENDBLK
5
21
100
AcDbEntity
100
AcDbBlockEnd
0
BLOCK
5
1C
100
AcDbEntity
100
AcDbBlockBegin
2
*PAPER_SPACE
0
ENDBLK
5
1D
100
AcDbEntity
100
AcDbBlockEnd
0
ENDSEC
0
SECTION
2
ENTITIES
0
LWPOLYLINE
5
100
100
AcDbEntity
8
0
100
AcDbPolyline
90
4
70
1
43
0.0
10
41.999999999999972
20
-132.00000000000006
10
41.999999999999972
20
-128.00000000000006
10
57.999999999999986
20
-128.00000000000006
10
57.999999999999986
20
-132.00000000000006
0
LWPOLYLINE
5
101
100
AcDbEntity
8
0
100
AcDbPolyline
90
4
70
1
43
0.0
10
138
20
82.000000000000028
10
138
20
98
10
141.99999999999997
20
98.000000000000028
10
141.99999999999997
20
82.000000000000028
0
LWPOLYLINE
5
102
100
AcDbEntity
8
0
100
AcDbPolyline
90
4
70
1
43
0.0
10
178.59999999999999
20
-72
42
0.99999999999999989
10
175.39999999999998
20
-72.000000000000043
10
175.4000000000029
20
-87
42
0.99999999999999989
10
178.59999999999999
20
-87
0
LWPOLYLINE
5
103
100
AcDbEntity
8
0
100
AcDbPolyline
90
4
70
1
43
0.0
10
-67.932695257824022
20
-131.88687923750263
10
-61.379478903512172
20
-136.47549072831097
10
-68.262396139724586
20
-146.30531525977901
10
-74.815612494036515
20
-141.71670376897063
0
LWPOLYLINE
5
104
100
AcDbEntity
8
0
100
AcDbPolyline
90
4
70
1
43
0.0
10
-67.932695257823909
20
131.88687923750268
10
-74.815612494036515
20
141.71670376897063
10
-68.262396139724558
20
146.30531525977898
10
-61.379478903512023
20
136.475490728311
0
LWPOLYLINE
5
105
100
AcDbEntity
8
0
100
AcDbPolyline
90
4
70
1
43
0.0
10
114
20
-28
10
102
20
-28
10
102
20
-20
10
114
20
-20
0
LWPOLYLINE
5
106
100
AcDbEntity
8
0
100
AcDbPolyline
90
4
70
1
43
0.0
10
178.59999999999999
20
87
42
0.99999999999999989
10
175.39999999999998
20
86.999999999999957
10
175.39999999999998
20
72
42
0.99999999999999989
10
178.59999999999999
20
72
0
LWPOLYLINE
5
107
100
AcDbEntity
8
0
100
AcDbPolyline
90
4
70
1
43
0.0
10
42.000000000000071
20
127.99999999999997
10
42.000000000000071
20
131.99999999999997
10
58.000000000000071
20
131.99999999999997
10
58.000000000000071
20
127.99999999999997
0
LWPOLYLINE
5
108
100
AcDbEntity
8
0
100
AcDbPolyline
90
4
70
1
43
0.0
10
-82.000000000000057
20
-98.000000000000057
10
-82.000000000000057
20
-82.000000000000057
10
-78.000000000000057
20
-82.000000000000057
10
-78.000000000000057
20
-98.000000000000057
0
LWPOLYLINE
5
109
100
AcDbEntity
8
0
100
AcDbPolyline
90
4
70
1
43
0.0
10
138
20
-97.999999999999829
10
137.99999999999997
20
-81.999999999999858
10
142.00000000000003
20
-81.999999999999858
10
142.00000000000003
20
-97.999999999999829
0
LWPOLYLINE
5
110
100
AcDbEntity
8
0
100
AcDbPolyline
90
4
70
1
43
0.0
10
162.0000000000029
20
-115.39999999999999
42
0.99999999999999989
10
162.00000000000284
20
-118.59999999999999
10
177.0000000000029
20
-118.59999999999999
42
0.99999999999999989
10
177.0000000000029
20
-115.4000000000029
0
LWPOLYLINE
5
111
100
AcDbEntity
8
0
100
AcDbPolyline
90
4
70
1
43
0.0
10
-100.69877702938363
20
-108.94382178346075
10
-107.58169426559617
20
-118.77364631492874
10
-114.13491061990811
20
-114.18503482412038
10
-107.25199338369551
20
-104.3552102926524
0
LWPOLYLINE
5
112
100
AcDbEntity
8
0
100
AcDbPolyline
90
4
70
1
43
0.0
10
-100.69877702938356
20
108.94382178346079
10
-107.25199338369549
20
104.35521029265239
10
-114.13491061990814
20
114.18503482412048
10
-107.58169426559618
20
118.77364631492878
0
LWPOLYLINE
5
113
100
AcDbEntity
8
0
100
AcDbPolyline
90
4
70
1
43
0.0
10
114
20
28.000000000000007
10
114
20
20
10
102
20
20
10
102
20
28.000000000000007
0
LWPOLYLINE
5
114
100
AcDbEntity
8
0
100
AcDbPolyline
90
4
70
1
43
0.0
10
177
20
115.39999999999999
10
161.99999999999991
20
115.39999999999999
42
-0.99999999999999989
10
162
20
118.59999999999999
10
177.00000000000006
20
118.59999999999999
42
-0.99999999999999989
0
LWPOLYLINE
5
115
100
AcDbEntity
8
0
100
AcDbPolyline
90
4
70
1
43
0.0
10
-82.000000000000028
20
82.000000000000014
10
-82.000000000000028
20
98.000000000000028
10
-78.000000000000043
20
98
10
-78.000000000000014
20
82.000000000000014
0
CIRCLE
5
116
100
AcDbEntity
8
0
100
AcDbCircle
10
-72.999999999999972
20
90
30
0
40
1.6000000000000003
210
0
220
-0
230
1
0
CIRCLE
5
117
100
AcDbEntity
8
0
100
AcDbCircle
10
156.81444002105965
20
132.73368600653529
30
0
40
1.6000000000000003
210
0
220
-0
230
1
0
CIRCLE
5
118
100
AcDbEntity
8
0
100
AcDbCircle
10
156.81444002105971
20
-132.73368600653521
30
0
40
1.6000000000000003
210
0
220
-0
230
1
0
CIRCLE
5
119
100
AcDbEntity
8
0
100
AcDbCircle
10
133.00000000000006
20
90
30
0
40
1.6000000000000003
210
0
220
-0
230
1
0
CIRCLE
5
120
100
AcDbEntity
8
0
100
AcDbCircle
10
50
20
-123.00000000000004
30
0
40
1.6000000000000003
210
0
220
-0
230
1
0
CIRCLE
5
121
100
AcDbEntity
8
0
100
AcDbCircle
10
115
20
15
30
0
40
1.6000000000000003
210
0
220
-0
230
1
0
CIRCLE
5
122
100
AcDbEntity
8
0
100
AcDbCircle
10
-79.484949151832524
20
139.66797363150442
30
0
40
1.6000000000000003
210
0
220
-0
230
1
0
CIRCLE
5
123
100
AcDbEntity
8
0
100
AcDbCircle
10
-79.484949151832495
20
-139.66797363150437
30
0
40
1.6000000000000003
210
0
220
-0
230
1
0
CIRCLE
5
124
100
AcDbEntity
8
0
100
AcDbCircle
10
-111.34163274117468
20
93.150635094610919
30
0
40
1.6000000000000003
210
0
220
-0
230
1
0
CIRCLE
5
125
100
AcDbEntity
8
0
100
AcDbCircle
10
-122.6813787033302
20
53.509618943233342
30
0
40
1.6000000000000003
210
0
220
-0
230
1
0
CIRCLE
5
126
100
AcDbEntity
8
0
100
AcDbCircle
10
-122.68137870333032
20
-53.509618943233413
30
0
40
1.6000000000000003
210
0
220
-0
230
1
0
CIRCLE
5
127
100
AcDbEntity
8
0
100
AcDbCircle
10
-111.34163274117476
20
-93.15063509461099
30
0
40
1.6000000000000003
210
0
220
-0
230
1
0
CIRCLE
5
128
100
AcDbEntity
8
0
100
AcDbCircle
10
-130.39419162443241
20
-104.15063509461098
30
0
40
1.6000000000000003
210
0
220
-0
230
1
0
CIRCLE
5
129
100
AcDbEntity
8
0
100
AcDbCircle
10
-155.39419162443241
20
-60.849364905389024
30
0
40
1.6000000000000003
210
0
220
-0
230
1
0
CIRCLE
5
130
100
AcDbEntity
8
0
100
AcDbCircle
10
-155.39419162443244
20
60.849364905389017
30
0
40
1.6000000000000003
210
0
220
-0
230
1
0
CIRCLE
5
131
100
AcDbEntity
8
0
100
AcDbCircle
10
-130.39419162443249
20
104.15063509461099
30
0
40
1.6000000000000003
210
0
220
-0
230
1
0
CIRCLE
5
132
100
AcDbEntity
8
0
100
AcDbCircle
10
-104.05951048050225
20
-122.46068054097299
30
0
40
1.6000000000000003
210
0
220
-0
230
1
0
CIRCLE
5
133
100
AcDbEntity
8
0
100
AcDbCircle
10
-104.05951048050227
20
122.46068054097299
30
0
40
1.6000000000000003
210
0
220
-0
230
1
0
CIRCLE
5
134
100
AcDbEntity
8
0
100
AcDbCircle
10
115
20
-15
30
0
40
1.6000000000000003
210
0
220
-0
230
1
0
CIRCLE
5
135
100
AcDbEntity
8
0
100
AcDbCircle
10
-72.999999999999986
20
-90
30
0
40
1.6000000000000003
210
0
220
-0
230
1
0
CIRCLE
5
136
100
AcDbEntity
8
0
100
AcDbCircle
10
133.00000000000009
20
-90
30
0
40
1.6000000000000003
210
0
220
-0
230
1
0
CIRCLE
5
137
100
AcDbEntity
8
0
100
AcDbCircle
10
50
20
122.99999999999999
30
0
40
1.6000000000000003
210
0
220
-0
230
1
0
CIRCLE
5
138
100
AcDbEntity
8
0
100
AcDbCircle
10
90.798099947909336
20
-178.20130483767358
30
0
40
1.6000000000000003
210
0
220
-0
230
1
0
CIRCLE
5
139
100
AcDbEntity
8
0
100
AcDbCircle
10
90.798099947909407
20
178.20130483767358
30
0
40
1.6000000000000003
210
0
220
-0
230
1
0
CIRCLE
5
140
100
AcDbEntity
8
0
100
AcDbCircle
10
-134.6621408168634
20
92.758330249197613
30
0
40
2.1000000000000001
210
0
220
-0
230
1
0
CIRCLE
5
141
100
AcDbEntity
8
0
100
AcDbCircle
10
-134.66214081686354
20
-92.758330249197712
30
0
40
2.1000000000000001
210
0
220
-0
230
1
0
CIRCLE
5
142
100
AcDbEntity
8
0
100
AcDbCircle
10
-142.66214081686354
20
-78.901923788646698
30
0
40
2.1000000000000001
210
0
220
-0
230
1
0
CIRCLE
5
143
100
AcDbEntity
8
0
100
AcDbCircle
10
-142.6621408168634
20
78.901923788646613
30
0
40
2.1000000000000001
210
0
220
-0
230
1
0
CIRCLE
5
144
100
AcDbEntity
8
0
100
AcDbCircle
10
15.600000000000001
20
149.04999999999998
30
0
40
3.0000000000000004
210
0
220
-0
230
1
0
CIRCLE
5
145
100
AcDbEntity
8
0
100
AcDbCircle
10
15.600000000000001
20
-149.05000000000004
30
0
40
3.0000000000000004
210
0
220
-0
230
1
0
CIRCLE
5
146
100
AcDbEntity
8
0
100
AcDbCircle
10
-15.600000000000001
20
-149.05000000000004
30
0
40
3.0000000000000004
210
0
220
-0
230
1
0
CIRCLE
5
147
100
AcDbEntity
8
0
100
AcDbCircle
10
-15.600000000000001
20
149.04999999999998
30
0
40
3.0000000000000004
210
0
220
-0
230
1
0
CIRCLE
5
148
100
AcDbEntity
8
0
100
AcDbCircle
10
-163.39999999999998
20
-8.5
30
0
40
1.3500000000000001
210
0
220
-0
230
1
0
CIRCLE
5
149
100
AcDbEntity
8
0
100
AcDbCircle
10
-116.60000000000002
20
-8.5
30
0
40
1.3500000000000001
210
0
220
-0
230
1
0
CIRCLE
5
150
100
AcDbEntity
8
0
100
AcDbCircle
10
-140
20
23.399999999999999
30
0
40
1.3500000000000001
210
0
220
-0
230
1
0
CIRCLE
5
151
100
AcDbEntity
8
0
100
AcDbCircle
10
-50
20
-122
30
0
40
1.6000000000000003
210
0
220
-0
230
1
0
CIRCLE
5
152
100
AcDbEntity
8
0
100
AcDbCircle
10
30
20
72
30
0
40
1.6000000000000003
210
0
220
-0
230
1
0
CIRCLE
5
153
100
AcDbEntity
8
0
100
AcDbCircle
10
-170
20
16.499999999999993
30
0
40
1.6000000000000003
210
0
220
-0
230
1
0
CIRCLE
5
154
100
AcDbEntity
8
0
100
AcDbCircle
10
-90
20
-16.499999999999993
30
0
40
1.6000000000000003
210
0
220
-0
230
1
0
CIRCLE
5
155
100
AcDbEntity
8
0
100
AcDbCircle
10
62.000000000000163
20
-72
30
0
40
1.6000000000000003
210
0
220
-0
230
1
0
CIRCLE
5
156
100
AcDbEntity
8
0
100
AcDbCircle
10
-46.000000000000007
20
82
30
0
40
1.6000000000000003
210
0
220
-0
230
1
0
CIRCLE
5
157
100
AcDbEntity
8
0
100
AcDbCircle
10
-32
20
118
30
0
40
1.6000000000000003
210
0
220
-0
230
1
0
CIRCLE
5
158
100
AcDbEntity
8
0
100
AcDbCircle
10
-60
20
95
30
0
40
1.6000000000000003
210
0
220
-0
230
1
0
CIRCLE
5
159
100
AcDbEntity
8
0
100
AcDbCircle
10
-46.000000000000007
20
-82
30
0
40
1.6000000000000003
210
0
220
-0
230
1
0
CIRCLE
5
160
100
AcDbEntity
8
0
100
AcDbCircle
10
39.5
20
-45
30
0
40
1.6000000000000003
210
0
220
-0
230
1
0
CIRCLE
5
161
100
AcDbEntity
8
0
100
AcDbCircle
10
-20
20
-77
30
0
40
1.6000000000000003
210
0
220
-0
230
1
0
CIRCLE
5
162
100
AcDbEntity
8
0
100
AcDbCircle
10
-1.9999999999999951
20
-30.000000000000004
30
0
40
1.6000000000000003
210
0
220
-0
230
1
0
CIRCLE
5
163
100
AcDbEntity
8
0
100
AcDbCircle
10
-61.999999999999993
20
29.999999999999996
30
0
40
1.6000000000000003
210
0
220
-0
230
1
0
CIRCLE
5
164
100
AcDbEntity
8
0
100
AcDbCircle
10
-61.999999999999993
20
-30.000000000000004
30
0
40
1.6000000000000003
210
0
220
-0
230
1
0
CIRCLE
5
165
100
AcDbEntity
8
0
100
AcDbCircle
10
-2.0000000000000027
20
29.999999999999996
30
0
40
1.6000000000000003
210
0
220
-0
230
1
0
CIRCLE
5
166
100
AcDbEntity
8
0
100
AcDbCircle
10
-20
20
-45
30
0
40
1.6000000000000003
210
0
220
-0
230
1
0
CIRCLE
5
167
100
AcDbEntity
8
0
100
AcDbCircle
10
39.5
20
-77
30
0
40
1.6000000000000003
210
0
220
-0
230
1
0
CIRCLE
5
168
100
AcDbEntity
8
0
100
AcDbCircle
10
-46.000000000000007
20
-40
30
0
40
1.6000000000000003
210
0
220
-0
230
1
0
CIRCLE
5
169
100
AcDbEntity
8
0
100
AcDbCircle
10
-60
20
118
30
0
40
1.6000000000000003
210
0
220
-0
230
1
0
CIRCLE
5
170
100
AcDbEntity
8
0
100
AcDbCircle
10
-32
20
95
30
0
40
1.6000000000000003
210
0
220
-0
230
1
0
CIRCLE
5
171
100
AcDbEntity
8
0
100
AcDbCircle
10
-46.000000000000007
20
40
30
0
40
1.6000000000000003
210
0
220
-0
230
1
0
CIRCLE
5
172
100
AcDbEntity
8
0
100
AcDbCircle
10
62.000000000000249
20
-108.99999999999999
30
0
40
1.6000000000000003
210
0
220
-0
230
1
0
CIRCLE
5
173
100
AcDbEntity
8
0
100
AcDbCircle
10
-90
20
16.499999999999993
30
0
40
1.6000000000000003
210
0
220
-0
230
1
0
CIRCLE
5
174
100
AcDbEntity
8
0
100
AcDbCircle
10
-170
20
-16.5
30
0
40
1.6000000000000003
210
0
220
-0
230
1
0
CIRCLE
5
175
100
AcDbEntity
8
0
100
AcDbCircle
10
30
20
30
30
0
40
1.6000000000000003
210
0
220
-0
230
1
0
CIRCLE
5
176
100
AcDbEntity
8
0
100
AcDbCircle
10
-50
20
-91
30
0
40
1.6000000000000003
210
0
220
-0
230
1
0
CIRCLE
5
177
100
AcDbEntity
8
0
100
AcDbCircle
10
131
20
-31.000000000000007
30
0
40
2.1499999999999999
210
0
220
-0
230
1
0
CIRCLE
5
178
100
AcDbEntity
8
0
100
AcDbCircle
10
45
20
15.000000000000002
30
0
40
2.1499999999999999
210
0
220
-0
230
1
0
CIRCLE
5
179
100
AcDbEntity
8
0
100
AcDbCircle
10
45
20
-31.000000000000007
30
0
40
2.1499999999999999
210
0
220
-0
230
1
0
CIRCLE
5
180
100
AcDbEntity
8
0
100
AcDbCircle
10
131
20
15.000000000000002
30
0
40
2.1499999999999999
210
0
220
-0
230
1
0
LWPOLYLINE
5
181
100
AcDbEntity
8
0
100
AcDbPolyline
90
4
70
1
43
0.0
10
-165
20
-34
10
-175
20
-34
10
-175
20
-30
10
-165
20
-30.000000000000004
0
LWPOLYLINE
5
182
100
AcDbEntity
8
0
100
AcDbPolyline
90
8
70
1
43
0.0
10
52.000000000000206
20
-102.99999999999999
10
52.000000000000206
20
-77.999999999999986
42
-0.41421356237309503
10
55.000000000000206
20
-74.999999999999986
10
69.000000000000199
20
-75
42
-0.41421356237309503
10
72.000000000000199
20
-78
10
72.000000000000213
20
-102.99999999999997
42
-0.41421356237309503
10
69.000000000000213
20
-105.99999999999997
10
55.000000000000213
20
-106
42
-0.41421356237309503
0
LWPOLYLINE
5
183
100
AcDbEntity
8
0
100
AcDbPolyline
90
4
70
1
43
0.0
10
-165
20
34
10
-165
20
30
10
-175
20
30
10
-175
20
34
0
LWPOLYLINE
5
184
100
AcDbEntity
8
0
100
AcDbPolyline
90
4
70
1
43
0.0
10
-85
20
-30
10
-85
20
-34
10
-95
20
-34
10
-95
20
-30
0
LWPOLYLINE
5
185
100
AcDbEntity
8
0
100
AcDbPolyline
90
4
70
1
43
0.0
10
-85
20
34
10
-85
20
30
10
-95
20
30
10
-95
20
34
0
LWPOLYLINE
5
186
100
AcDbEntity
8
0
100
AcDbPolyline
90
34
70
1
43
0.0
10
187.00000000000011
20
121.30703178863803
42
0.23763607023588515
10
185.78571428571436
20
123.71767993587893
10
125.00000000000017
20
168.74537030686216
42
0.048889922225808014
10
89.857060104396879
20
189.80439602231263
42
0.18553525868231405
10
87.710819949867812
20
189.96622619091906
10
77.137432132676565
20
186.79210716115844
42
0.33115555403166469
10
74.999999999999972
20
183.91878562080464
10
74.999999999999986
20
162
42
-0.41421356237309503
10
71.999999999999972
20
159
10
-72
20
159
42
-0.41421356237309503
10
-74.999999999999986
20
162
10
-75
20
163.33095236359827
42
0.55161517046682984
10
-79.292817679558027
20
166.03809522045353
42
0.63062143769729062
10
-79.292817679557913
20
-166.03809522045353
42
0.55161517046682251
10
-74.999999999999986
20
-163.33095236359824
10
-75
20
-162
42
-0.41421356237309503
10
-72
20
-159
10
72
20
-159
42
-0.41421356237309503
10
74.999999999999986
20
-162
10
75
20
-183.91878562080447
42
0.33115555403166957
10
77.137432132676594
20
-186.7921071611583
10
87.710819949867982
20
-189.9662261909188
42
0.1855352586823138
10
89.857060104397078
20
-189.80439602231235
42
0.048889922225807445
10
125
20
-168.74537030686207
10
185.78571428571408
20
-123.71767993587902
42
0.23763607023586916
10
186.99999999999983
20
-121.30703178863817
10
187.00000000000011
20
-68.242640687119405
42
0.19891236737966972
10
186.12132034355972
20
-66.121320343559759
10
152.87867965644037
20
-32.878679656440383
42
-0.19891236737965823
10
152
20
-30.757359312880727
10
152
20
30.757359312880737
42
-0.19891236737965823
10
152.87867965644037
20
32.878679656440383
10
186.12132034355955
20
66.121320343559603
42
0.19891236737966228
10
186.99999999999991
20
68.242640687119234
0
ENDSEC
0
SECTION
2
OBJECTS
0
DICTIONARY
5
C
100
AcDbDictionary
3
ACAD_GROUP
350
D
3
ACAD_MLINESTYLE
350
17
0
DICTIONARY
5
D
100
AcDbDictionary
0
DICTIONARY
5
1A
330
C
100
AcDbDictionary
0
DICTIONARY
5
17
100
AcDbDictionary
0
ENDSEC
0
EOF
