0
SECTION
2
HEADER
9
$INSUNITS
70
4
9
$ACADVER
1
AC1014
9
$HANDSEED
5
FFFF
0
ENDSEC
0
SECTION
2
TABLES
0
TABLE
2
VPORT
5
8
100
AcDbSymbolTable
0
ENDTAB
0
TABLE
2
LTYPE
5
5
100
AcDbSymbolTable
0
LTYPE
5
14
100
AcDbSymbolTableRecord
100
AcDbLinetypeTableRecord
2
BYBLOCK
70
0
0
LTYPE
5
15
100
AcDbSymbolTableRecord
100
AcDbLinetypeTableRecord
2
BYLAYER
70
0
0
ENDTAB
0
TABLE
2
LAYER
5
2
100
AcDbSymbolTable
70
2
0
LAYER
5
50
100
AcDbSymbolTableRecord
100
AcDbLayerTableRecord
2
0
70
0
6
CONTINUOUS
0
ENDTAB
0
TABLE
2
STYLE
5
3
100
AcDbSymbolTable
70
1
0
STYLE
5
11
100
AcDbSymbolTableRecord
100
AcDbTextStyleTableRecord
2
STANDARD
70
0
0
ENDTAB
0
TABLE
2
VIEW
5
6
100
AcDbSymbolTable
70
0
0
ENDTAB
0
TABLE
2
UCS
5
7
100
AcDbSymbolTable
70
0
0
ENDTAB
0
TABLE
2
APPID
5
9
100
AcDbSymbolTable
70
2
0
APPID
5
12
100
AcDbSymbolTableRecord
100
AcDbRegAppTableRecord
2
ACAD
70
0
0
ENDTAB
0
TABLE
2
DIMSTYLE
5
A
100
AcDbSymbolTable
70
1
0
ENDTAB
0
TABLE
2
BLOCK_RECORD
5
1
100
AcDbSymbolTable
70
1
0
BLOCK_RECORD
5
1F
100
AcDbSymbolTableRecord
100
AcDbBlockTableRecord
2
*MODEL_SPACE
0
BLOCK_RECORD
5
1B
100
AcDbSymbolTableRecord
100
AcDbBlockTableRecord
2
*PAPER_SPACE
0
ENDTAB
0
ENDSEC
0
SECTION
2
BLOCKS
0
BLOCK
5
20
100
AcDbEntity
100
AcDbBlockBegin
2
*MODEL_SPACE
0
ENDBLK
5
21
100
AcDbEntity
100
AcDbBlockEnd
0
BLOCK
5
1C
100
AcDbEntity
100
AcDbBlockBegin
2
*PAPER_SPACE
0
ENDBLK
5
1D
100
AcDbEntity
100
AcDbBlockEnd
0
ENDSEC
0
SECTION
2
ENTITIES
0
LWPOLYLINE
5
100
100
AcDbEntity
8
0
100
AcDbPolyline
90
24
70
1
43
0.0
10
89.857060104396993
20
189.80439602231235
42
0.18553525868231804
10
87.710819949867897
20
189.96622619091883
10
77.137432132676594
20
186.79210716115824
42
0.3311555540316678
10
75.000000000000014
20
183.91878562080447
10
75.000000000000014
20
162
42
-0.41421356237309503
10
72.000000000000014
20
159
10
-72.000000000000014
20
159
42
-0.41421356237309503
10
-75.000000000000014
20
162
10
-75.000000000000014
20
180.90052515127198
42
0.53914576967780037
10
-79.187817258883172
20
183.65535548352469
42
0.65782009145925602
10
-79.187817258820857
20
-183.65535548355155
42
0.53914576967769046
10
-74.999999999938609
20
-180.90052515129841
10
-74.999999999938666
20
-162
42
-0.41421356237309592
10
-71.999999999938652
20
-159
10
72.000000000061334
20
-159
42
-0.41421356237309503
10
75.000000000061334
20
-162
10
75.000000000061334
20
-183.91878562078037
42
0.33115555403174035
10
77.137432132738638
20
-186.79210716113437
10
87.71081994992727
20
-189.96622619089129
42
0.18553525868230916
10
89.85706010445648
20
-189.80439602228421
42
0.048889922225728633
10
125.00000000000007
20
-168.74537030686201
10
260.59523809523819
20
-68.301697505158344
42
0.50371752330406538
10
260.59523809523807
20
68.301697505158472
10
124.99999999999994
20
168.74537030686216
42
0.048889922225807445
0
CIRCLE
5
101
100
AcDbEntity
8
0
100
AcDbCircle
10
-99.999999999999261
20
80.000000000000028
30
0
40
1.6000000000000003
210
0
220
-0
230
1
0
CIRCLE
5
102
100
AcDbEntity
8
0
100
AcDbCircle
10
-39.999999999999233
20
-80.000000000003979
30
0
40
1.6000000000000003
210
0
220
-0
230
1
0
CIRCLE
5
103
100
AcDbEntity
8
0
100
AcDbCircle
10
-40
20
0
30
0
40
1.6000000000000003
210
0
220
-0
230
1
0
CIRCLE
5
104
100
AcDbEntity
8
0
100
AcDbCircle
10
-31.500000000000004
20
32.999999999999993
30
0
40
1.6000000000000003
210
0
220
-0
230
1
0
CIRCLE
5
105
100
AcDbEntity
8
0
100
AcDbCircle
10
-73.000000000000014
20
-33.000000000000021
30
0
40
1.6000000000000003
210
0
220
-0
230
1
0
CIRCLE
5
106
100
AcDbEntity
8
0
100
AcDbCircle
10
185
20
49.999999999999964
30
0
40
1.6000000000000003
210
0
220
-0
230
1
0
CIRCLE
5
107
100
AcDbEntity
8
0
100
AcDbCircle
10
230
20
-50.000000000000036
30
0
40
1.6000000000000003
210
0
220
-0
230
1
0
CIRCLE
5
108
100
AcDbEntity
8
0
100
AcDbCircle
10
185
20
-50.000000000000036
30
0
40
1.6000000000000003
210
0
220
-0
230
1
0
CIRCLE
5
109
100
AcDbEntity
8
0
100
AcDbCircle
10
230
20
49.999999999999964
30
0
40
1.6000000000000003
210
0
220
-0
230
1
0
CIRCLE
5
110
100
AcDbEntity
8
0
100
AcDbCircle
10
-31.500000000000007
20
-33.000000000000021
30
0
40
1.6000000000000003
210
0
220
-0
230
1
0
CIRCLE
5
111
100
AcDbEntity
8
0
100
AcDbCircle
10
-73.000000000000014
20
32.999999999999993
30
0
40
1.6000000000000003
210
0
220
-0
230
1
0
CIRCLE
5
112
100
AcDbEntity
8
0
100
AcDbCircle
10
-125
20
-9.4750271172339367e-16
30
0
40
1.6000000000000003
210
0
220
-0
230
1
0
CIRCLE
5
113
100
AcDbEntity
8
0
100
AcDbCircle
10
-99.999999999999275
20
-79.999999999999972
30
0
40
1.6000000000000003
210
0
220
-0
230
1
0
CIRCLE
5
114
100
AcDbEntity
8
0
100
AcDbCircle
10
-39.999999999999218
20
80.000000000003979
30
0
40
1.6000000000000003
210
0
220
-0
230
1
0
CIRCLE
5
115
100
AcDbEntity
8
0
100
AcDbCircle
10
244
20
28.000000000000007
30
0
40
3.1499999999999999
210
0
220
-0
230
1
0
CIRCLE
5
116
100
AcDbEntity
8
0
100
AcDbCircle
10
215.99999999999997
20
-28
30
0
40
3.1499999999999999
210
0
220
-0
230
1
0
CIRCLE
5
117
100
AcDbEntity
8
0
100
AcDbCircle
10
244
20
-28
30
0
40
3.1499999999999999
210
0
220
-0
230
1
0
CIRCLE
5
118
100
AcDbEntity
8
0
100
AcDbCircle
10
215.99999999999997
20
28.000000000000007
30
0
40
3.1499999999999999
210
0
220
-0
230
1
0
CIRCLE
5
119
100
AcDbEntity
8
0
100
AcDbCircle
10
-192.00000000000003
20
-3.5640823625726632e-11
30
0
40
1.6000000000000003
210
0
220
-0
230
1
0
CIRCLE
5
120
100
AcDbEntity
8
0
100
AcDbCircle
10
131.2831790592208
20
-154.13520720775415
30
0
40
1.6000000000000003
210
0
220
-0
230
1
0
CIRCLE
5
121
100
AcDbEntity
8
0
100
AcDbCircle
10
286.99999999999994
20
-8.8817841970012523e-15
30
0
40
1.6000000000000003
210
0
220
-0
230
1
0
CIRCLE
5
122
100
AcDbEntity
8
0
100
AcDbCircle
10
-15.600000000000001
20
149.05000000000004
30
0
40
1.6000000000000003
210
0
220
-0
230
1
0
CIRCLE
5
123
100
AcDbEntity
8
0
100
AcDbCircle
10
15.600000000000001
20
110.95000000000002
30
0
40
1.6000000000000003
210
0
220
-0
230
1
0
CIRCLE
5
124
100
AcDbEntity
8
0
100
AcDbCircle
10
-15.600000000000001
20
-110.94999999999996
30
0
40
1.6000000000000003
210
0
220
-0
230
1
0
CIRCLE
5
125
100
AcDbEntity
8
0
100
AcDbCircle
10
15.600000000000001
20
-149.04999999999998
30
0
40
1.6000000000000003
210
0
220
-0
230
1
0
CIRCLE
5
126
100
AcDbEntity
8
0
100
AcDbCircle
10
80
20
114.50000000000003
30
0
40
1.6000000000000003
210
0
220
-0
230
1
0
CIRCLE
5
127
100
AcDbEntity
8
0
100
AcDbCircle
10
-64.5
20
-90
30
0
40
1.6000000000000003
210
0
220
-0
230
1
0
CIRCLE
5
128
100
AcDbEntity
8
0
100
AcDbCircle
10
-64.5
20
90
30
0
40
1.6000000000000003
210
0
220
-0
230
1
0
CIRCLE
5
129
100
AcDbEntity
8
0
100
AcDbCircle
10
79.999999999999986
20
-114.49999999999997
30
0
40
1.6000000000000003
210
0
220
-0
230
1
0
CIRCLE
5
130
100
AcDbEntity
8
0
100
AcDbCircle
10
-15.600000000000001
20
-149.04999999999995
30
0
40
1.6000000000000003
210
0
220
-0
230
1
0
CIRCLE
5
131
100
AcDbEntity
8
0
100
AcDbCircle
10
15.600000000000001
20
-110.94999999999996
30
0
40
1.6000000000000003
210
0
220
-0
230
1
0
CIRCLE
5
132
100
AcDbEntity
8
0
100
AcDbCircle
10
-15.600000000000001
20
110.95000000000002
30
0
40
1.6000000000000003
210
0
220
-0
230
1
0
CIRCLE
5
133
100
AcDbEntity
8
0
100
AcDbCircle
10
15.600000000000001
20
149.05000000000004
30
0
40
1.6000000000000003
210
0
220
-0
230
1
0
CIRCLE
5
134
100
AcDbEntity
8
0
100
AcDbCircle
10
131.28317905922091
20
154.13520720775435
30
0
40
1.6000000000000003
210
0
220
-0
230
1
0
CIRCLE
5
135
100
AcDbEntity
8
0
100
AcDbCircle
10
-95.999999999969162
20
-166.27687752663007
30
0
40
1.6000000000000003
210
0
220
-0
230
1
0
CIRCLE
5
136
100
AcDbEntity
8
0
100
AcDbCircle
10
-96.000000000030937
20
166.27687752659449
30
0
40
1.6000000000000003
210
0
220
-0
230
1
0
LWPOLYLINE
5
137
100
AcDbEntity
8
0
100
AcDbPolyline
90
4
70
1
43
0.0
10
32.5
20
127.95000000000003
10
27.499999999999982
20
127.95000000000003
42
-0.99999999999999989
10
27.5
20
132.05000000000004
10
32.500000000000014
20
132.05000000000004
42
-0.99999999999999989
0
LWPOLYLINE
5
138
100
AcDbEntity
8
0
100
AcDbPolyline
90
4
70
1
43
0.0
10
-35
20
-96
10
-55
20
-96
10
-55
20
-90
10
-35
20
-90
0
LWPOLYLINE
5
139
100
AcDbEntity
8
0
100
AcDbPolyline
90
4
70
1
43
0.0
10
-32.500000000000043
20
132.05000000000004
10
-27.499999999999996
20
132.04999999999998
42
-0.99999999999999989
10
-27.499999999999996
20
127.95000000000009
10
-32.500000000000057
20
127.95000000000003
42
-0.99999999999999989
0
LWPOLYLINE
5
140
100
AcDbEntity
8
0
100
AcDbPolyline
90
4
70
1
43
0.0
10
72
20
-127.99999999999997
10
88
20
-127.99999999999997
10
88
20
-131.99999999999994
10
72
20
-131.99999999999994
0
LWPOLYLINE
5
141
100
AcDbEntity
8
0
100
AcDbPolyline
90
8
70
1
43
0.0
10
-25
20
-102
10
-25.000000000000007
20
102.00000000000003
42
-0.41421356237309503
10
-22
20
105.00000000000003
10
127
20
104.99999999999999
42
-0.41421356237309503
10
130
20
101.99999999999997
10
130
20
-102.00000000000001
42
-0.41421356237309503
10
127
20
-105.00000000000001
10
-21.999999999999993
20
-105
42
-0.41421356237309503
0
LWPOLYLINE
5
142
100
AcDbEntity
8
0
100
AcDbPolyline
90
4
70
1
43
0.0
10
32.5
20
-132.04999999999995
10
27.499999999999986
20
-132.04999999999995
42
-0.99999999999999989
10
27.500000000000004
20
-127.94999999999996
10
32.500000000000014
20
-127.94999999999996
42
-0.99999999999999989
0
LWPOLYLINE
5
143
100
AcDbEntity
8
0
100
AcDbPolyline
90
4
70
1
43
0.0
10
137.94999999999999
20
67.499999999999972
10
137.94999999999999
20
72.499999999999943
42
-0.99999999999999989
10
142.04999999999998
20
72.499999999999972
10
142.04999999999998
20
67.499999999999986
42
-0.99999999999999989
0
LWPOLYLINE
5
144
100
AcDbEntity
8
0
100
AcDbPolyline
90
4
70
1
43
0.0
10
-35
20
96
10
-35
20
90
10
-55
20
90
10
-55
20
96
0
LWPOLYLINE
5
145
100
AcDbEntity
8
0
100
AcDbPolyline
90
4
70
1
43
0.0
10
72
20
132.00000000000003
10
88
20
132.00000000000003
10
88
20
128.00000000000006
10
72
20
128.00000000000006
0
LWPOLYLINE
5
146
100
AcDbEntity
8
0
100
AcDbPolyline
90
4
70
1
43
0.0
10
-32.499999999999993
20
-127.94999999999996
10
-27.499999999999982
20
-127.94999999999996
42
-0.99999999999999989
10
-27.5
20
-132.04999999999995
10
-32.500000000000014
20
-132.04999999999995
42
-0.99999999999999989
0
LWPOLYLINE
5
147
100
AcDbEntity
8
0
100
AcDbPolyline
90
4
70
1
43
0.0
10
202.5
20
-2.0499999999999927
42
0.99999999999999989
10
202.5
20
2.0499999999999732
10
197.5
20
2.0499999999999727
42
0.99999999999999989
10
197.5
20
-2.0499999999999932
0
LWPOLYLINE
5
148
100
AcDbEntity
8
0
100
AcDbPolyline
90
4
70
1
43
0.0
10
220
20
45
10
220
20
37
10
195
20
37
10
195
20
45
0
LWPOLYLINE
5
149
100
AcDbEntity
8
0
100
AcDbPolyline
90
4
70
1
43
0.0
10
137.94999999999999
20
-72.499999999999986
10
137.94999999999999
20
-67.500000000000014
42
-0.99999999999999989
10
142.04999999999998
20
-67.499999999999986
10
142.04999999999998
20
-72.499999999999972
42
-0.99999999999999989
0
ENDSEC
0
SECTION
2
OBJECTS
0
DICTIONARY
5
C
100
AcDbDictionary
3
ACAD_GROUP
350
D
3
ACAD_MLINESTYLE
350
17
0
DICTIONARY
5
D
100
AcDbDictionary
0
DICTIONARY
5
1A
330
C
100
AcDbDictionary
0
DICTIONARY
5
17
100
AcDbDictionary
0
ENDSEC
0
EOF
